name analog
datacolumns 19
datarows 63
range 0.195 0.226
endheader
time	ground_force_vx	ground_force_vy	ground_force_vz	ground_force_px	ground_force_py	ground_force_pz	l_ground_force_vx	l_ground_force_vy	l_ground_force_vz	l_ground_force_px	l_ground_force_py	l_ground_force_pz	ground_torque_x	ground_torque_y	ground_torque_z	l_ground_torque_x	l_ground_torque_y	l_ground_torque_z
0.195	-0.0	-0.0	-0.0	-0.0	-0.0	-0.0	1.7405730485916138	-15.124340057373049	-622.3024291992188	-0.0	-0.0	-0.0	-0.0	-0.0	-0.0	171049.96875	-7108.4814453125	-156.5487823486328
0.1955	-0.0	-0.0	-0.0	-0.0	-0.0	-0.0	1.0310412645339966	-14.854713439941406	-617.1023559570312	-0.0	-0.0	-0.0	-0.0	-0.0	-0.0	169793.328125	-6686.7783203125	-347.8102111816406
0.196	-0.0	-0.0	-0.0	-0.0	-0.0	-0.0	0.7817230820655823	-15.053205490112305	-612.4985961914062	-0.0	-0.0	-0.0	-0.0	-0.0	-0.0	168307.765625	-6120.1044921875	-416.7781982421875
0.1965	-0.0	-0.0	-0.0	-0.0	-0.0	-0.0	0.4435539245605469	-15.152623176574709	-607.895263671875	-0.0	-0.0	-0.0	-0.0	-0.0	-0.0	167109.515625	-5638.291015625	-696.9155883789062
0.197	-0.0	-0.0	-0.0	-0.0	-0.0	-0.0	0.0330679677426815	-15.495232582092283	-605.2098999023438	-0.0	-0.0	-0.0	-0.0	-0.0	-0.0	166449.875	-5349.1259765625	-953.16162109375
0.1975	-0.0	-0.0	-0.0	-0.0	-0.0	-0.0	-0.1216525584459304	-15.68846321105957	-604.2119750976562	-0.0	-0.0	-0.0	-0.0	-0.0	-0.0	165948.75	-4961.6123046875	-1198.2662353515625
0.198	-0.0	-0.0	-0.0	-0.0	-0.0	-0.0	-0.4994627237319946	-16.332836151123047	-602.9202880859375	-0.0	-0.0	-0.0	-0.0	-0.0	-0.0	165900.5	-4909.55322265625	-1422.8934326171875
0.1985	-0.0	-0.0	-0.0	-0.0	-0.0	-0.0	-0.992142379283905	-17.06233787536621	-602.3228759765625	-0.0	-0.0	-0.0	-0.0	-0.0	-0.0	165928.3125	-4639.8818359375	-1604.5260009765625
0.199	-0.0	-0.0	-0.0	-0.0	-0.0	-0.0	-1.2744721174240112	-18.419477462768555	-603.718017578125	-0.0	-0.0	-0.0	-0.0	-0.0	-0.0	165896.640625	-4633.93701171875	-1839.3179931640625
0.1995	-0.0	-0.0	-0.0	-0.0	-0.0	-0.0	-1.7418491840362549	-19.583541870117188	-605.33447265625	-0.0	-0.0	-0.0	-0.0	-0.0	-0.0	166286.421875	-4633.28857421875	-1896.6937255859373
0.2	-0.0	-0.0	-0.0	-0.0	-0.0	-0.0	-1.887057185173035	-20.71542358398437	-606.0952758789062	-0.0	-0.0	-0.0	-0.0	-0.0	-0.0	166817.453125	-4709.95068359375	-2212.5234375
0.2005	-0.0	-0.0	-0.0	-0.0	-0.0	-0.0	-2.645273447036743	-21.30150604248047	-608.1589965820312	-0.0	-0.0	-0.0	-0.0	-0.0	-0.0	166965.15625	-4830.61962890625	-2493.704345703125
0.201	-0.0	-0.0	-0.0	-0.0	-0.0	-0.0	-2.6205315589904785	-22.57854652404785	-611.3016357421875	-0.0	-0.0	-0.0	-0.0	-0.0	-0.0	167464.234375	-5093.64208984375	-2647.698486328125
0.2015	-0.0	-0.0	-0.0	-0.0	-0.0	-0.0	-2.6931443214416504	-22.931957244873047	-612.5372314453125	-0.0	-0.0	-0.0	-0.0	-0.0	-0.0	168354.640625	-5440.658203125	-2599.15234375
0.202	-0.0	-0.0	-0.0	-0.0	-0.0	-0.0	-2.4268720149993896	-23.061426162719727	-615.4920043945312	-0.0	-0.0	-0.0	-0.0	-0.0	-0.0	169174.859375	-5620.5673828125	-2844.73779296875
0.2025	-0.0	-0.0	-0.0	-0.0	-0.0	-0.0	-2.5784811973571777	-22.439550399780277	-621.4278564453125	-0.0	-0.0	-0.0	-0.0	-0.0	-0.0	170170.265625	-5302.93017578125	-3027.99462890625
0.203	-0.0	-0.0	-0.0	-0.0	-0.0	-0.0	-2.515302896499634	-21.99209976196289	-623.4827880859375	-0.0	-0.0	-0.0	-0.0	-0.0	-0.0	171358.625	-5733.07763671875	-3172.763916015625
0.20350000000000001	-0.0	-0.0	-0.0	-0.0	-0.0	-0.0	-2.8543684482574463	-21.207752227783203	-629.766357421875	-0.0	-0.0	-0.0	-0.0	-0.0	-0.0	173090.375	-6054.7333984375	-3437.9970703125
0.20400000000000001	-0.0	-0.0	-0.0	-0.0	-0.0	-0.0	-3.595114231109619	-20.1636962890625	-634.8189086914062	-0.0	-0.0	-0.0	-0.0	-0.0	-0.0	174095.921875	-5960.91357421875	-3745.34716796875
0.20450000000000002	-0.0	-0.0	-0.0	-0.0	-0.0	-0.0	-3.814563751220703	-19.342449188232425	-640.5269775390625	-0.0	-0.0	-0.0	-0.0	-0.0	-0.0	175778.96875	-5827.60302734375	-4110.20751953125
0.20500000000000002	-0.0	-0.0	-0.0	-0.0	-0.0	-0.0	-4.331415176391602	-19.15045928955078	-646.4010009765625	-0.0	-0.0	-0.0	-0.0	-0.0	-0.0	177135.75	-5998.783203125	-4200.88232421875
0.20550000000000002	-0.0	-0.0	-0.0	-0.0	-0.0	-0.0	-4.686327934265137	-19.01971435546875	-650.8789672851562	-0.0	-0.0	-0.0	-0.0	-0.0	-0.0	178210.765625	-5969.20654296875	-4497.6953125
0.20600000000000002	-0.0	-0.0	-0.0	-0.0	-0.0	-0.0	-5.913060665130615	-18.91605567932129	-656.224609375	-0.0	-0.0	-0.0	-0.0	-0.0	-0.0	179483.546875	-6120.0126953125	-4829.9140625
0.20650000000000002	-0.0	-0.0	-0.0	-0.0	-0.0	-0.0	-6.66851282119751	-19.223854064941406	-659.6670532226562	-0.0	-0.0	-0.0	-0.0	-0.0	-0.0	180747.96875	-5777.39599609375	-5072.84814453125
0.20700000000000002	-0.0	-0.0	-0.0	-0.0	-0.0	-0.0	-7.319705963134766	-19.652637481689453	-663.5668334960938	-0.0	-0.0	-0.0	-0.0	-0.0	-0.0	181204.15625	-5443.31640625	-5398.927734375
0.20750000000000002	-0.0	-0.0	-0.0	-0.0	-0.0	-0.0	-7.940449714660644	-20.180673599243164	-667.8084106445312	-0.0	-0.0	-0.0	-0.0	-0.0	-0.0	181994.546875	-5407.267578125	-5567.46484375
0.20800000000000002	-0.0	-0.0	-0.0	-0.0	-0.0	-0.0	-8.013970375061035	-20.3302059173584	-668.743408203125	-0.0	-0.0	-0.0	-0.0	-0.0	-0.0	182509.125	-5188.408203125	-5656.63134765625
0.2085	-0.0	-0.0	-0.0	-0.0	-0.0	-0.0	-8.841218948364258	-20.313987731933597	-672.3485107421875	-0.0	-0.0	-0.0	-0.0	-0.0	-0.0	183016.59375	-4884.91064453125	-5929.2783203125
0.209	-0.0	-0.0	-0.0	-0.0	-0.0	-0.0	-9.284927368164062	-20.54937744140625	-673.6887817382812	-0.0	-0.0	-0.0	-0.0	-0.0	-0.0	183536.59375	-4889.208984375	-6008.791015625
0.2095	-0.0	-0.0	-0.0	-0.0	-0.0	-0.0	-9.27029037475586	-20.475906372070312	-675.95751953125	-0.0	-0.0	-0.0	-0.0	-0.0	-0.0	183622.25	-4451.74658203125	-5969.330078125
0.21	-0.0	-0.0	-0.0	-0.0	-0.0	-0.0	-9.432783126831056	-20.461320877075195	-676.2487182617188	-0.0	-0.0	-0.0	-0.0	-0.0	-0.0	183170.5	-4063.19677734375	-5860.64453125
0.2105	-0.0	-0.0	-0.0	-0.0	-0.0	-0.0	-9.565266609191896	-20.40230941772461	-675.6083984375	-0.0	-0.0	-0.0	-0.0	-0.0	-0.0	183178.25	-3906.381591796875	-5984.24951171875
0.211	-0.0	-0.0	-0.0	-0.0	-0.0	-0.0	-10.037664413452148	-19.975215911865234	-673.4512329101562	-0.0	-0.0	-0.0	-0.0	-0.0	-0.0	182778.90625	-3584.265380859375	-6098.2158203125
0.2115	-0.0	-0.0	-0.0	-0.0	-0.0	-0.0	-10.275948524475098	-19.533531188964844	-673.7551879882812	-0.0	-0.0	-0.0	-0.0	-0.0	-0.0	182116.21875	-3112.15771484375	-6113.36376953125
0.212	-0.0	-0.0	-0.0	-0.0	-0.0	-0.0	-10.3482084274292	-19.182247161865234	-669.5023803710938	-0.0	-0.0	-0.0	-0.0	-0.0	-0.0	181026.75	-2807.51806640625	-6108.53857421875
0.2125	-0.0	-0.0	-0.0	-0.0	-0.0	-0.0	-10.68840217590332	-18.41631317138672	-665.5396118164062	-0.0	-0.0	-0.0	-0.0	-0.0	-0.0	180012.734375	-2080.70361328125	-5959.5029296875
0.213	-0.0	-0.0	-0.0	-0.0	-0.0	-0.0	-10.851300239562988	-17.73843002319336	-663.0389404296875	-0.0	-0.0	-0.0	-0.0	-0.0	-0.0	179072.65625	-1799.6368408203125	-5949.810546875
0.2135	-0.0	-0.0	-0.0	-0.0	-0.0	-0.0	-10.954092979431152	-16.75279998779297	-659.54736328125	-0.0	-0.0	-0.0	-0.0	-0.0	-0.0	177935.890625	-1436.444580078125	-6078.9072265625
0.214	-0.0	-0.0	-0.0	-0.0	-0.0	-0.0	-11.514488220214844	-15.79548454284668	-657.5787353515625	-0.0	-0.0	-0.0	-0.0	-0.0	-0.0	176859.640625	-1121.3193359375	-6058.93017578125
0.2145	-0.0	-0.0	-0.0	-0.0	-0.0	-0.0	-12.181541442871094	-14.866084098815918	-652.4923095703125	-0.0	-0.0	-0.0	-0.0	-0.0	-0.0	175890.953125	-507.8551025390625	-6073.322265625
0.215	-0.0	-0.0	-0.0	-0.0	-0.0	-0.0	-12.797797203063965	-13.954826354980469	-650.653076171875	-0.0	-0.0	-0.0	-0.0	-0.0	-0.0	175050.546875	-153.57940673828125	-6267.0712890625
0.2155	-0.0	-0.0	-0.0	-0.0	-0.0	-0.0	-13.689345359802246	-13.262133598327637	-648.963134765625	-0.0	-0.0	-0.0	-0.0	-0.0	-0.0	173697.6875	133.3677215576172	-6281.54150390625
0.216	-0.0	-0.0	-0.0	-0.0	-0.0	-0.0	-14.479207992553713	-12.610735893249512	-645.9305419921875	-0.0	-0.0	-0.0	-0.0	-0.0	-0.0	172958.0625	450.5058288574219	-6322.66357421875
0.2165	-0.0	-0.0	-0.0	-0.0	-0.0	-0.0	-14.562378883361816	-12.847892761230469	-644.13037109375	-0.0	-0.0	-0.0	-0.0	-0.0	-0.0	171863.984375	776.4527587890625	-6163.3125
0.217	-0.0	-0.0	-0.0	-0.0	-0.0	-0.0	-14.187411308288574	-12.731995582580566	-642.0358276367188	-0.0	-0.0	-0.0	-0.0	-0.0	-0.0	170890.765625	980.3795166015624	-5989.57275390625
0.2175	-0.0	-0.0	-0.0	-0.0	-0.0	-0.0	-14.139046669006348	-12.908576011657717	-639.3504028320312	-0.0	-0.0	-0.0	-0.0	-0.0	-0.0	169954.03125	960.1793212890624	-5843.43701171875
0.218	-0.0	-0.0	-0.0	-0.0	-0.0	-0.0	-14.064214706420898	-13.295953750610352	-638.5982666015625	-0.0	-0.0	-0.0	-0.0	-0.0	-0.0	168954.390625	1044.7520751953125	-5523.96533203125
0.2185	-0.0	-0.0	-0.0	-0.0	-0.0	-0.0	-13.750171661376951	-13.350037574768066	-635.2664794921875	-0.0	-0.0	-0.0	-0.0	-0.0	-0.0	167893.390625	1186.635009765625	-5398.4599609375
0.219	-0.0	-0.0	-0.0	-0.0	-0.0	-0.0	-13.190988540649414	-14.219791412353516	-634.8636474609375	-0.0	-0.0	-0.0	-0.0	-0.0	-0.0	167052.875	988.4566650390624	-5119.70849609375
0.2195	-0.0	-0.0	-0.0	-0.0	-0.0	-0.0	-12.787734985351562	-14.308113098144531	-631.26611328125	-0.0	-0.0	-0.0	-0.0	-0.0	-0.0	166253.125	1207.17578125	-4784.1650390625
0.22	-0.0	-0.0	-0.0	-0.0	-0.0	-0.0	-12.916340827941896	-14.988164901733398	-628.7695922851562	-0.0	-0.0	-0.0	-0.0	-0.0	-0.0	164998.5	1455.3138427734375	-4688.0625
0.2205	-0.0	-0.0	-0.0	-0.0	-0.0	-0.0	-12.228838920593262	-15.279651641845703	-625.6796875	-0.0	-0.0	-0.0	-0.0	-0.0	-0.0	163662.484375	1643.7799072265625	-4563.119140625
0.221	-0.0	-0.0	-0.0	-0.0	-0.0	-0.0	-11.785362243652344	-15.479045867919922	-623.080078125	-0.0	-0.0	-0.0	-0.0	-0.0	-0.0	162146.234375	1544.8995361328125	-4310.36279296875
0.2215	-0.0	-0.0	-0.0	-0.0	-0.0	-0.0	-11.1251220703125	-15.279651641845703	-617.649169921875	-0.0	-0.0	-0.0	-0.0	-0.0	-0.0	161515.296875	1551.94921875	-4173.5263671875
0.222	-0.0	-0.0	-0.0	-0.0	-0.0	-0.0	-10.467872619628906	-15.240705490112305	-616.14990234375	-0.0	-0.0	-0.0	-0.0	-0.0	-0.0	160345.375	1771.1162109375	-3965.35400390625
0.2225	-0.0	-0.0	-0.0	-0.0	-0.0	-0.0	-10.190801620483398	-15.1417236328125	-612.9061889648438	-0.0	-0.0	-0.0	-0.0	-0.0	-0.0	159611.25	2009.9036865234373	-4062.064208984375
0.223	-0.0	-0.0	-0.0	-0.0	-0.0	-0.0	-10.60817813873291	-15.202598571777344	-609.7710571289062	-0.0	-0.0	-0.0	-0.0	-0.0	-0.0	158754.015625	2251.638671875	-4197.82080078125
0.2235	-0.0	-0.0	-0.0	-0.0	-0.0	-0.0	-10.898605346679688	-14.510287284851074	-609.1686401367188	-0.0	-0.0	-0.0	-0.0	-0.0	-0.0	158093.140625	2045.0797119140625	-4160.11474609375
0.224	-0.0	-0.0	-0.0	-0.0	-0.0	-0.0	-10.822715759277344	-13.979637145996094	-604.9793090820312	-0.0	-0.0	-0.0	-0.0	-0.0	-0.0	157399.890625	2272.57666015625	-4193.8779296875
0.2245	-0.0	-0.0	-0.0	-0.0	-0.0	-0.0	-10.619918823242188	-13.197827339172363	-606.0269165039062	-0.0	-0.0	-0.0	-0.0	-0.0	-0.0	157102.65625	2317.3603515625	-3947.77197265625
0.225	-0.0	-0.0	-0.0	-0.0	-0.0	-0.0	-9.70730686187744	-12.983287811279297	-602.6853637695312	-0.0	-0.0	-0.0	-0.0	-0.0	-0.0	156607.234375	2209.2509765625	-3980.96630859375
0.2255	-0.0	-0.0	-0.0	-0.0	-0.0	-0.0	-9.59331226348877	-12.781659126281738	-601.9373779296875	-0.0	-0.0	-0.0	-0.0	-0.0	-0.0	157011.390625	2048.624267578125	-3811.262451171875
0.226	-0.0	-0.0	-0.0	-0.0	-0.0	-0.0	-9.821941375732422	-11.92342758178711	-601.5338134765625	-0.0	-0.0	-0.0	-0.0	-0.0	-0.0	156820.59375	2069.275634765625	-3798.666259765625
